<svg id="Layer_1" data-name="Layer 1" xmlns="http://www.w3.org/2000/svg" viewBox="0 0 162.088 192.055">
  <defs>
    <style>
      .cls-1 {
        fill-rule: evenodd;
      }

      .cls-2 {
        fill: #fff;
        stroke: #fff;
        stroke-miterlimit: 10;
      }
    </style>
  </defs>
  <title>8159c456-6d76-4e47-9421-a7dbc3628a6c</title>
  <g>
    <path class="cls-1" d="M15.515,14.719c4.65,2.939,9.914-1.28,10.392-5.432-.75-8.478-11.877-7.5-12.753-.473C12.97,10.287,13.658,13.544,15.515,14.719ZM13.139,97.144c.176-.1.477-1.373-.473-1.416C12.809,96.214,12.285,97.368,13.139,97.144ZM4.4,113.437c.277-.035.67.041.707-.236.087-2.045.229-4.143-1.416-5.431.928-.219.6.821,1.652.473,0-1.427-.939-2.041-2.125-1.653-.19-1.069-1.423-1.1-.944-2.833H1.565a56.026,56.026,0,0,0,3.307,18.417C7.749,121.1,4.492,116.031,4.4,113.437Zm131.081,4.486a.882.882,0,0,0,0,1.182h.946C136.6,118.219,136.159,117.953,135.481,117.924ZM7.47,125.953c.213-1.3-.905-2.506-1.417-3.779-.043.35-.571.217-.945.236,1.063,2.242.987,5.625,2.6,7.32.9,5.082,4.886,9.127,7.086,13.7,1.875,1.273,2.764,3.533,4.723,4.723-.254-1.949-2.05-2.357-2.126-4.486C12.694,139.148,11.062,131.57,7.47,125.953Zm93.292,33.529c.066.5,1.2,1.135,1.417.709C101.6,160.06,101.676,159.277,100.763,159.482Zm32.829-33.529c-4.346,3.131-6.852,8.1-11.809,10.625-.09.775-.691,1.041-.944,1.652-5.214,1.943-8.08,5.848-14.879,5.668a6.77,6.77,0,0,1-2.6,2.125c-2.457-.611-4.568,1.178-5.9,1.654-1.941.69-5.851.473-7.794.709-8.041.967-18.031-.676-25.272-2.6-1.95-.518-4.064-1.863-5.432-2.359-3.12-1.139-5.575-.4-6.613-3.07-.847.086-.866.633-1.654.236a49.1,49.1,0,0,0-9.211-5.2c-2.616-5.021-8.259-7.012-10.864-12.045-5.526-3.131-7.486-9.83-11.809-14.166-1.264,1.282,1.384,4.3-.472,5.9a20.908,20.908,0,0,1,1.418,9.918c1.843.824,2.811,3.891.471,4.721-.112,1.855,2.009,4.262,1.655,6.379,1.382.383,1.954-.076,2.362-1.182.956,1.211.975,3.469,1.652,4.959,1.281.256,1.023-1.025,2.125-.945a3.693,3.693,0,0,0,2.126,1.418c-.491,1.75,1.158,1.361,1.654,2.125a1.683,1.683,0,0,0-.709.471c1.594-.82,1.38,1.272,1.89,1.891,1.052,1.281,3.793,2.123,3.306,4.486,1.817-.481,1.3-1.656,2.362-2.125.928,1.676,1.773,1.121,3.543,2.6.371-.9,1.584-2.187,1.417-2.834-.023,1.033-1.152-.244-1.18-.709,1.059-2.291.155-4.641.471-6.611,1.959,1.033,2.244,3.738,3.779,5.2-.172,1.615-1.588,2.551-1.653,4.486a4.868,4.868,0,0,0,4.487,1.652c2.166,1.219,2.467,4.3,3.543,6.611a6.3,6.3,0,0,1,2.361.473,2.006,2.006,0,0,0,.235,1.416c2.6.328,3.3-1.736,5.669-.943,3.7-3.643,9.134-1.395,14.17-2.125.269-1.842,1.574-1.365,3.07-2.125.456.754-.139,1.189.236,2.125.324.463,1.425.15,1.418.943,1.606-.611,3.5-1.959,1.889-2.6,1.959-.559,3.094-1.23,4.96-1.418.349,1.035,1.133.721.709,2.125a42.022,42.022,0,0,0,8.267-.943c.371.416.066,1.508.708,1.652,1.567.68,1.94-1.394,4.016-.945.384.453.407,1.978-.236,2.125,1.4.978,2.316-.234,4.251,0a8.88,8.88,0,0,1,1.654-.943c5.188-.2,7.761-3.358,11.1-5.2a20.555,20.555,0,0,0,3.543-2.125c7.252-6.25,12.956-14.768,19.6-21.488,1.078-2.619,3.268-4.133,4.959-6.141.7.154.955,1.525,1.653.945,1.855-1.148.21-6.043,3.07-5.666,2.332.307,1.4,4.3,1.653,6.848.145,1.443.948,2.65.944,4.014-.006,1.906-.959,3.338.237,4.25,2.226-1.2,2.86-4.307,3.306-6.611,1.2-6.225.919-13.67,1.417-20.071.046-.6.466-1.311.472-1.889.016-1.309-.7-2.474-.709-3.778-.027-4.372,4.515-8.143,2.128-12.752,4.18-5.488,1.587-13.978.235-21.252-.985-5.3-3.391-10.258-4.252-14.64-.39-.634-1.289-.759-1.653-1.417-2.812-10.647-8.491-18.428-15.352-25.03-1.52.3-2.109.083-3.307.709-.209-.42-.659-.6-.473-1.418-1.084.105-2.141.5-2.125-.944a33.407,33.407,0,0,1,3.779.474c-.544-.75-.758-.6-.474-1.889C126.181,10.491,110.284,2.842,93.44,1.038,86.25-.517,78.786-.093,71.712.8c-2.946.372-5.51,2.371-8.739,1.89-6.18,2.558-13.019,4.458-17.949,8.264-.645.021-.475-.394-.945,0-3,2.435-6.921,3.944-9.447,6.85-5.473,3.343-9.353,8.278-14.171,12.277-.141.753.443.73,0,1.182-2.9,1.245-2.958,3.931-4.488,6.376.614.095.683.733.946,1.181C14.1,41.858,14.455,48.96,9.6,49.209c2.511,2.837-.162,6.583-2.126,8.737.876,1.045-.336,2.016-.708,2.6.287,1.843-.84,3.059-.237,4.487-1.356,3.235-4.563,4.651-3.777,8.264-.722.171-.862-.239-1.418-.236A1.291,1.291,0,0,1,.385,74C-.236,78.443.06,84.211.148,89.824c.042,2.623.8,4.979.945,7.319.135,2.179-.874,4.85,1.181,6.141.67.041-.286-1.546.708-1.183a1.507,1.507,0,0,1,.944,1.417c.1,1.041-1.131.759-.708,2.126,1.938.282,2.2-1.948,4.015-2.834a1.659,1.659,0,0,1,0-1.417c.729-.779,1.364-.2,1.89-1.181-1.018.26-1.1-.177-1.654-.236.8-1.676,1.473-3.8,3.544-3.541.212-1.114-1.312-.222-.709-.944.158.651.814-1.081,0-.235-.173-.731,1.4-1.744,2.6-1.89-.242-.229-.479-.467-.71-.709,1.305-3.275-2.682-9.018.474-10.862.013-5.219-1.362-8.615-.237-14.4-.063-.8-1.217-.515-1.181-1.415.224-.723,1.149-.741,1.181-1.653,1.312-3.667,1.174-6.847,1.653-10.391.5-3.7,3.9-6.247,3.307-10.39,1.563-.989,2.385-3.6,2.363-5.431,1.769.438,3.864-.225,4.487-1.653-.149-1.11-1.105-1.416-1.182-2.6,2.2-4.253,6.41-6.5,8.5-10.863,1.489.229,1.462-1.057,2.125-1.651A67.4,67.4,0,0,1,77.381,8.594c.368.34.82.6.944,1.182a40.6,40.6,0,0,0,4.486.944c2.031,2.16,6.033,2.232,8.975,3.541,3.978,1.772,8.485,4.133,12.519,5.669,5.686,2.164,12.039,4.223,16.06,7.792,4.589,4.071,5.843,10.165,8.5,15.82,1.075,2.285,2.369,4.224,3.309,6.612a7.078,7.078,0,0,1-3.071-3.07c-.724.172-.7-.407-1.418-.236a9.691,9.691,0,0,0-5.433-3.778c-1.487-2.426-5-3.075-7.557-4.249-2-.916-3.463-3.512-5.67-3.543.029,1.385,1.526,1.344,1.89,1.181.113.744-.725.535-.472,1.416.925,1.371,2.247,1.834,3.306,3.07.5.578.6,1.642,1.183,2.361,2.123,2.614,5.747,4.071,7.794,6.611,1.113,1.385,1.729,3.077,3.069,4.251,1.031.9,2.326,1.118,3.308,1.889,1.955,1.541,3.17,4.57,5.2,5.9a20.174,20.174,0,0,0,6.849,7.084,4.48,4.48,0,0,1,.236,4.014c-2.436-1.342-3.123-4.433-5.2-6.139-2.316-4.609-6.821-7.033-10.156-10.626-.556.006-.694-.407-1.416-.236-4.062-4.048-9.843-7.629-16.533-8.265,2.308,3.2,6.2,4.823,9.447,7.084.139,2.144,2.2,2.365,3.779,3.07.053.446-.267.521-.236.944,6.1,5.314,10.244,12.585,15.825,18.417.971,3.015,5.44,8.079,5.432,11.571,0,1.514-1.456,3.272-1.889,5.2a33.406,33.406,0,0,0-.474,3.776c-.17,1.556-.6,2.931-.709,4.25-.245,2.909,1.319,5.727,1.183,8.5M23.766,131.619c-.836-.127-.58.836-1.416.709-.637-.539-.457-1.193-.709-1.654.4-.307,1.331.146,2.125-.234A1.471,1.471,0,0,0,23.766,131.619Zm19.369,7.793c-.494-.137-.675-.586-1.417-.473-.054-.42.237-1.184-.472-.943.779-.777-.635-.565-.474-1.418.848-.139,1.144.274,1.655.473C41.892,138.008,43.318,137.7,43.134,139.412ZM65.571,153.58c-1.336-3.818,3.548-.744,0,0Zm4.488,0c.019-.336.038-.668-.237-.709.062-.553,1.037-.135,1.182,0C70.8,153.219,70.649,153.621,70.059,153.58ZM47.149,168.22a8.885,8.885,0,0,1-1.654-.473c-4.936-3.932-10.613-5.713-14.644-10.391-4.313-1.131-5.386-6.715-9.919-6.848,1.855,2.3,3.353,5.115,5.668,6.848.61.455,1.464.451,2.127.945,1.215.908,2.079,2.42,3.305,3.3.676.488,1.636.967,2.363,1.418,4.124,2.56,9.341,6.141,13.934,7.084.252.01.6-.111.236-.236A12.441,12.441,0,0,1,47.149,168.22Zm4.251,2.125c-.93.379-1.615-.465-1.889.473,2.287-.024,4.357,2.055,7.322,2.125C56.171,170.927,52.77,171.652,51.4,170.345Z"/>
    <path class="cls-2" d="M60.553,38.986a46.676,46.676,0,0,0,.642-6.423,4.359,4.359,0,0,0-1.772-3.832l.186-.321q3.714.557,3.715,2.911a3.248,3.248,0,0,1-.084.685q-.27,1.392-.523,3.04l-.2,1.113-.389,2.462a.369.369,0,0,0,.042.278.283.283,0,0,0,.194.149.085.085,0,0,0,.084,0l2.178-.257a34.618,34.618,0,0,0,4.441-.7,4.61,4.61,0,0,0,2.178-1q.405-.45.675-.45.54,0,1.3,1.477a4.382,4.382,0,0,1,.574,1.841.718.718,0,0,1-.219.535,4.3,4.3,0,0,0-.946,2.59q-1.52,12.482-4.255,17.512-1.216,2.249-2.33,2.248a.518.518,0,0,1-.456-.192,1.371,1.371,0,0,1-.135-.728v-.278q0-2.654-2.921-6.444l.1-.342q3.073,2.826,3.58,3.211l.186.171h.017a1.058,1.058,0,0,0,.608.278q.422-.021.76-.7a18.7,18.7,0,0,0,.844-2.173,69.5,69.5,0,0,0,2.82-16.57.405.405,0,0,0-.084-.311.249.249,0,0,0-.236-.1l-4.069.6q-4.677.749-4.947.771a.315.315,0,0,0-.287.3A51.89,51.89,0,0,1,57.665,53.5a29.215,29.215,0,0,1-9.118,10.6l-.22-.3q9-7.9,11.887-22.864a.4.4,0,0,0-.034-.278A.342.342,0,0,0,60,40.485a.089.089,0,0,0-.084,0q-.472.043-.962.128-1.891.343-4.12.878a7.088,7.088,0,0,1-1.4.214q-2.162,0-3.445-3.361l.186-.278a5.616,5.616,0,0,0,4.39,1.627,47.364,47.364,0,0,0,5.741-.407Q60.519,39.265,60.553,38.986Z"/>
    <path class="cls-2" d="M45.02,92.512a44.744,44.744,0,0,0,9.706-16.868,21.828,21.828,0,0,0,1.141-5.154,2.424,2.424,0,0,0-1.683-2.144l.168-.39q4.227.368,4.208,2.317a12.756,12.756,0,0,1-.692,2.707A44.156,44.156,0,0,1,45.282,92.772Zm20.5-24.078a43.05,43.05,0,0,1,8.752,10.133q3.086,5.067,3.067,8.38a3.427,3.427,0,0,1-.318,1.721,1.085,1.085,0,0,1-.991.509q-.8.022-1.253-1.992a38.9,38.9,0,0,0-9.556-18.427Z"/>
    <path class="cls-2" d="M71.192,118.246q1.534.606,1.534,1.408,0,.757-1.571.758h-.617l-3.329-.044H61.15q-2.356,0-8.022.368a.277.277,0,0,0-.243.152.383.383,0,0,0-.056.3q.037.195.131.628a.1.1,0,0,0,.019.064v.108a2.116,2.116,0,0,1-.673,1.494,1.293,1.293,0,0,1-.786.39.678.678,0,0,1-.626-.324,2.385,2.385,0,0,1-.2-1.147v-.5q.112-2.339.112-8.467-.019-11.887-.449-14.1a5.457,5.457,0,0,0-1.8-3.118l.206-.238q3.123.823,3.853,2.468a.306.306,0,0,0,.318.195q3.628-.216,7.237-.411,6.6-.26,8.752-.584a4.973,4.973,0,0,0,2.095-.845,1.3,1.3,0,0,1,.748-.3q.3,0,.86.65a5.168,5.168,0,0,1,1.291,2.966q0,.282-.393.563a2.619,2.619,0,0,0-.9,1.624v.021q-.187,1.234-1.253,11.91l-.243,2.078-.149,1.516A.354.354,0,0,0,71.192,118.246Zm-1.589.368,1.253-19.531a.351.351,0,0,0-.094-.292.267.267,0,0,0-.243-.1L52.641,99.777c-.162,0-.262.1-.3.3a18.546,18.546,0,0,0-.075,2.187q-.019,7.557.374,16.435l.038.649a.362.362,0,0,0,.1.26.3.3,0,0,0,.215.108h.43q.112,0,5.573-.281,2.3-.086,6.807-.325,2.375-.129,2.936-.13h.542a.276.276,0,0,0,.224-.119A.4.4,0,0,0,69.6,118.615Z"/>
    <g>
      <path d="M83.032,37.309a.394.394,0,0,1-.085-.176,1.115,1.115,0,0,1,.361-.677,2.655,2.655,0,0,1,.942-.642l.523-.229h.085c.143,0,.265.1.369.3a1.676,1.676,0,0,1,.155.773,4.133,4.133,0,0,1-.057.475A1.409,1.409,0,0,0,85,38.1v.721q0,7.611-.156,12.129t-.156,4.641q0,.4.071,1.362t.07,1.556a3.079,3.079,0,0,1-.205,1.213q-.205.475-.488.475a.753.753,0,0,1-.241-.07.777.777,0,0,0-.283-.07.688.688,0,0,0-.213.053.884.884,0,0,1-.312.053q-.665,0-.665-.932,0-.105.057-.545a6.33,6.33,0,0,0,.637-2.663q.227-2.136.227-9.747Q83.343,40.737,83.032,37.309ZM98.089,56.891a.83.83,0,0,1,.5.826,3,3,0,0,1-.433,1.679,1.267,1.267,0,0,1-1.083.659q-.652,0-1.177-.958a12.96,12.96,0,0,0-2.6-2.794q-2.076-1.837-3.768-3.481a12.339,12.339,0,0,0-3.081-2.312q-1.062-.756-1.062-1.354a1.509,1.509,0,0,1,.227-.721,6.363,6.363,0,0,0,1.162-1.406,3.162,3.162,0,0,1,.665-.229q.242-.246.645-.633a3.154,3.154,0,0,0,.446-.475q.284-.6,1.5-2.575t2.007-3.349L94,36.254a3.434,3.434,0,0,1,.959-.176,1.95,1.95,0,0,1,.451.035,1.849,1.849,0,0,1,.112.65V36.9a1.731,1.731,0,0,1-.2.756,14.69,14.69,0,0,0-2.054,2.268,4.879,4.879,0,0,1-.95,1.74l-1.19,1.81L90.2,45.13l-.622.7c-.17.188-.3.34-.4.457a2.094,2.094,0,0,0-.17.228,7.274,7.274,0,0,1-.39.861,1.773,1.773,0,0,0-.247.685A1.959,1.959,0,0,0,88.8,49.32a11.7,11.7,0,0,0,1.34,1.345q.913.809,1.558,1.407t.9.81a7,7,0,0,1,.715.739q.46.528.687.756a2.484,2.484,0,0,1,.708.51,2.237,2.237,0,0,0,.418.387,1.17,1.17,0,0,1,.347.387,3.485,3.485,0,0,0,.34.158,1.07,1.07,0,0,1,.27.141v.035q0,.3.793.633a4.276,4.276,0,0,0,.949.334A.761.761,0,0,0,98.089,56.891Z"/>
      <path d="M109.209,50.44a.728.728,0,0,1-.191.387,1.707,1.707,0,0,0-.262.439,4.894,4.894,0,0,0-.113,1.028q-.042.835-.043,2.47l.057,2.373a.48.48,0,0,1-.127.334,5,5,0,0,0-.028.65,10.258,10.258,0,0,0,.17,1.652l.155.932-.028.861.028.756q-1.02,1.266-1.516,1.266a.692.692,0,0,1-.269-.123.71.71,0,0,0-.368-.123h-.086a3.985,3.985,0,0,1-.113-.879,4.305,4.305,0,0,1,.326-1.652q.155-.246.233-.387a3.633,3.633,0,0,0,.078-1.055q0-1-.17-1a.755.755,0,0,0-.177.07.741.741,0,0,1-.319.07h-.113a.606.606,0,0,0-.212.369,10.064,10.064,0,0,0-1.855.791,4.027,4.027,0,0,1-1.587.352,3.936,3.936,0,0,1-1.5-.272,2.858,2.858,0,0,1-1.118-.809,4.87,4.87,0,0,1-.588-.8A3.029,3.029,0,0,1,99.336,57l.028-.439v-.141q0-1.758,2.2-3.691a9.49,9.49,0,0,1,4.115-2.338,4.823,4.823,0,0,0,.793-.22,1.072,1.072,0,0,0,.475-.378,2.409,2.409,0,0,0,.191-1.213,4.205,4.205,0,0,0-2.663-4.254,1.306,1.306,0,0,1-.233-.141.476.476,0,0,0-.262-.105,15.586,15.586,0,0,0-2.295.141,1.418,1.418,0,0,1-1.134.721q-.467,0-.467-.4,0-.018.205-.747a.925.925,0,0,1,.984-.729,6.277,6.277,0,0,1,3.258-.6,3.25,3.25,0,0,1,2.946,1.828,10.616,10.616,0,0,1,1.049,5.221v.246a.681.681,0,0,0,.4.334q.283.105.283.316Zm-2.791,6.24a5.348,5.348,0,0,0,.893-2.672,4.836,4.836,0,0,0-.29-1.564,1.13,1.13,0,0,0-1.154-.844,3.7,3.7,0,0,0-2.72,1.037h-.354q-2.181,1.494-2.182,3.164a2.542,2.542,0,0,0,.9,1.978,3.049,3.049,0,0,0,2.09.8,4.258,4.258,0,0,0,1.189-.334A3.961,3.961,0,0,0,106.418,57Z"/>
    </g>
    <g>
      <path d="M96.545,70.792a1.4,1.4,0,0,1-.028-.352q0-.562.822-1.055a4.8,4.8,0,0,1,.921-.492h.113a.485.485,0,0,1,.41.29,1.387,1.387,0,0,1,.17.712,1.881,1.881,0,0,1-.085.545q-.325.141-.325,1.037l.07,3.27q0,7.014-.177,11.241t-.177,4.351a1.939,1.939,0,0,0,.467,1.336q-.07.51-.113.87c-.028.24-.07.372-.127.4a2.949,2.949,0,0,0-.985.439,1.937,1.937,0,0,1-.715.352c-.076,0-.2-.1-.383-.3l-.17-1.248a10.282,10.282,0,0,0,.609-3.867v-.6l.028-5.59a1.1,1.1,0,0,0-.185-.457.731.731,0,0,0-.417-.378,2.226,2.226,0,0,0-.56-.062l-.723.105H93.472q-2.437,0-3.039.053a2.729,2.729,0,0,0-.878.185,1.576,1.576,0,0,1-.318.132.365.365,0,0,1-.34-.264,2.462,2.462,0,0,1-1.021.264l-1.133-.07q-2.21,0-2.21.932v.422L84.505,84.4l.028,1.547-.057,2.707a14.1,14.1,0,0,0,.205,2.268,13.066,13.066,0,0,1,.206,1.652l-.029.686-.5.4a2.1,2.1,0,0,0-1.105-.3,2.162,2.162,0,0,0-.467.035q-.157-.211-.255-.211a.075.075,0,0,0-.057.035,2.734,2.734,0,0,1-.057-.545c0-.035.009-.187.028-.457q.34-3.41.41-7.84L83,75.626l.085-2.988a17.284,17.284,0,0,0-.438-3.709l-.2-.264q.17,0,.17-.211v-.246q0-.3.17-.334.467-.686.963-.686a3.136,3.136,0,0,1,1.36.51q-.639,9.3-.638,10.2c0,.07.009.249.028.536s.028.442.028.466l-.028.176a1.162,1.162,0,0,0,.4.844,1.178,1.178,0,0,0,.821.387h.185a3.579,3.579,0,0,1,.645.088,3.571,3.571,0,0,0,.63.088q.114,0,1.091-.158a10.064,10.064,0,0,1,1.431-.158q1.261,0,2.21.07t.978.07q.185,0,.27-.264a3.455,3.455,0,0,0,1.091.193h1.374a.378.378,0,0,1,.283-.193.968.968,0,0,0,.743-.5,1.522,1.522,0,0,0,.22-.642v-1l.028-3.463V73.6Q96.9,70.9,96.545,70.792Z"/>
      <path d="M112.482,83.712a.728.728,0,0,1-.191.387,1.707,1.707,0,0,0-.262.439,4.894,4.894,0,0,0-.113,1.028q-.042.835-.043,2.47l.057,2.373a.48.48,0,0,1-.127.334,5,5,0,0,0-.028.65,10.258,10.258,0,0,0,.17,1.652l.155.932-.028.861.028.756q-1.02,1.266-1.516,1.266a.692.692,0,0,1-.269-.123.71.71,0,0,0-.368-.123h-.086a3.985,3.985,0,0,1-.113-.879,4.305,4.305,0,0,1,.326-1.652q.155-.246.233-.387a3.633,3.633,0,0,0,.078-1.055q0-1-.17-1a.755.755,0,0,0-.177.07.741.741,0,0,1-.319.07h-.113a.606.606,0,0,0-.212.369,10.064,10.064,0,0,0-1.855.791,4.027,4.027,0,0,1-1.587.352,3.936,3.936,0,0,1-1.5-.272,2.858,2.858,0,0,1-1.118-.809,4.87,4.87,0,0,1-.588-.8,3.029,3.029,0,0,1-.135-1.143l.028-.439v-.141q0-1.758,2.2-3.691a9.49,9.49,0,0,1,4.115-2.338,4.823,4.823,0,0,0,.793-.22,1.072,1.072,0,0,0,.475-.378,2.409,2.409,0,0,0,.191-1.213A4.205,4.205,0,0,0,107.75,77.6a1.306,1.306,0,0,1-.233-.141.476.476,0,0,0-.262-.105,15.586,15.586,0,0,0-2.295.141,1.418,1.418,0,0,1-1.134.721q-.467,0-.467-.4,0-.018.205-.747a.925.925,0,0,1,.984-.729,6.277,6.277,0,0,1,3.258-.6,3.25,3.25,0,0,1,2.946,1.828,10.616,10.616,0,0,1,1.049,5.221v.246a.681.681,0,0,0,.4.334q.283.105.283.316Zm-2.791,6.24a5.348,5.348,0,0,0,.893-2.672,4.836,4.836,0,0,0-.29-1.564,1.13,1.13,0,0,0-1.154-.844,3.7,3.7,0,0,0-2.72,1.037h-.354q-2.181,1.494-2.182,3.164a2.542,2.542,0,0,0,.9,1.978,3.049,3.049,0,0,0,2.09.8,4.258,4.258,0,0,0,1.189-.334,3.961,3.961,0,0,0,1.629-1.248Z"/>
    </g>
    <g>
      <path d="M97.068,120.144a.972.972,0,0,1,.144.559,2.01,2.01,0,0,1-.46,1.23q-.461.6-.814.6-.255,0-.751-.668l-.808-.984a17.47,17.47,0,0,0-3.079-2.693q-2.187-1.6-5.825-4.735l-.176-.943v-.14a.323.323,0,0,1,.227-.34q.227-.079.666-.271a8.45,8.45,0,0,0,3.768-2.575,6.679,6.679,0,0,0,1.077-4q0-3.006-1.413-4.3A4.666,4.666,0,0,0,86.378,99.6h-.61a1.19,1.19,0,0,0-.8.316q-.362.316-.362,1.6,0,.615.036,1.011t.035,1.116l-.146,4.377q0,1.037.014,1.635l.039,1.283-.053.791q-.053.932-.053,1.986,0,.967.227,8.789a3.712,3.712,0,0,0-.219.387c-.089.176-.161.264-.218.264s-.112-.041-.2-.123q-.9.334-.957.334-.226,0-.443-.369a2.224,2.224,0,0,1-.218-1.107v-.176q.665-1.3.665-5.221l-.085-6.451.085-4.641-.028-2.777a15.134,15.134,0,0,0-.113-1.626q-.113-1.011-.113-1.433a1.246,1.246,0,0,1,.106-.58.5.5,0,0,1,.354-.246q.248-.053.928-.149a10.263,10.263,0,0,1,1.444-.1,9.761,9.761,0,0,1,2.606.325,7.376,7.376,0,0,1,2.26,1.081A4.483,4.483,0,0,1,92.07,101.5a8.29,8.29,0,0,1,.637,1.714,6.967,6.967,0,0,1,.213,1.67q0,4.605-4.845,7a.855.855,0,0,0-.34.563,1.511,1.511,0,0,0,.573.977q.573.554,2.145,1.8a5.843,5.843,0,0,1,.977.793q.565.546.765.722a4,4,0,0,1,1.062.731,2.18,2.18,0,0,0,.757.537,1.523,1.523,0,0,1,.361.141.531.531,0,0,0,.2.352,10.585,10.585,0,0,1,1.274,1q.75.669,1.051.669A.373.373,0,0,0,97.068,120.144Z"/>
      <path d="M99.067,111.87a7.963,7.963,0,0,1,7.947-5.227,9.238,9.238,0,0,1,1.594.124,5.071,5.071,0,0,1,1.3.4,4.344,4.344,0,0,1,1.1.757,6.807,6.807,0,0,1,.984,1.179,12.974,12.974,0,0,1,.942,1.689,6.4,6.4,0,0,1,.255,2.288,10.843,10.843,0,0,1-2.2,6.863,6.663,6.663,0,0,1-5.446,2.833h-.113a7.423,7.423,0,0,0-.736-.176.1.1,0,0,0-.085.035q-.127.247-.864.247a5.312,5.312,0,0,1-2.373-.713,5.6,5.6,0,0,1-2.238-2.19,6.049,6.049,0,0,1-.871-3.115q0-.633.05-1.258a11.5,11.5,0,0,1,.156-1.2,9.886,9.886,0,0,1,.262-1.082l.34-1Zm12.479,2.868v-.458a7.143,7.143,0,0,0-1.479-4.708,4.836,4.836,0,0,0-3.917-1.787,3.269,3.269,0,0,0-1.006.15,4.079,4.079,0,0,0-.538.193,1.289,1.289,0,0,0-.248.37,1.585,1.585,0,0,1-.255.387.346.346,0,0,1-.22.062l-.723-.105c-.1,0-.175.105-.212.316q-1.077.106-2.026,1.989a8.611,8.611,0,0,0-.948,3.925q0,.44.142,1.857a4.353,4.353,0,0,0,.878,2.341,7.033,7.033,0,0,0,1.792,1.584,3.524,3.524,0,0,0,1.707.66,1.141,1.141,0,0,0,.34-.053l.127-.053h.581a3.522,3.522,0,0,0,2.578-.722q.07-.07.085-.07a.65.65,0,0,1,.27.105,11.724,11.724,0,0,0,2.315-3.511A8.4,8.4,0,0,0,111.546,114.739Z"/>
    </g>
  </g>
</svg>
