<svg id="Layer_1" data-name="Layer 1" xmlns="http://www.w3.org/2000/svg" viewBox="0 0 5.065 5.368">
  <title>648302a8-3614-4463-82c7-38807558394f</title>
  <path d="M2.532.3c-.058,0-.115,0-.172.008a1.354,1.354,0,0,1,.17.37h0c.348,0,.725.48.908,1.21H2.313c-.065.127-.136.255-.21.378H3.514a4.106,4.106,0,0,1,.039.567,3.982,3.982,0,0,1-.051.643H1.563c-.018-.11-.031-.225-.04-.343l-.053.072-.242.32-.051-.069,0,.02h-.7a2.166,2.166,0,0,1-.1-.643,2.144,2.144,0,0,1,.048-.448c-.091-.145-.18-.3-.26-.455A2.532,2.532,0,0,0,4.85,3.856h.026V3.8A2.533,2.533,0,0,0,2.532.3m.883.568a2.166,2.166,0,0,1,1.053,1.02H3.83A2.99,2.99,0,0,0,3.415.871M.636,3.856h.617a2.909,2.909,0,0,0,.4.944A2.158,2.158,0,0,1,.636,3.856m1.9,1.134c-.335,0-.7-.446-.887-1.134H3.42c-.189.688-.552,1.134-.888,1.134m.883-.19a2.952,2.952,0,0,0,.4-.944H4.43A2.162,2.162,0,0,1,3.415,4.8M4.589,3.479h-.7a4.615,4.615,0,0,0,.045-.643A4.729,4.729,0,0,0,3.9,2.269h.715a2.166,2.166,0,0,1,.076.567,2.135,2.135,0,0,1-.1.643"/>
  <path d="M1.228,0A1.053,1.053,0,0,0,.176,1.053,5.981,5.981,0,0,0,1.228,3.026,5.981,5.981,0,0,0,2.28,1.053,1.053,1.053,0,0,0,1.228,0m0,1.513A.526.526,0,1,1,1.754.987a.527.527,0,0,1-.526.526"/>
</svg>
