<svg id="Layer_1" data-name="Layer 1" xmlns="http://www.w3.org/2000/svg" viewBox="0 0 5.395 4.81">
  <title>a5356719-d019-4e23-8d76-141c2f207e18</title>
  <path id="_Compound_Path_" data-name="&lt;Compound Path&gt;" d="M5.334,3.624a.372.372,0,0,0,.013-.1V2.4a.373.373,0,0,0-.136-.288L4.856.339A.339.339,0,0,0,4.52,0H.9A.339.339,0,0,0,.562.339L.174,2.089A.373.373,0,0,0,0,2.4V3.527a.372.372,0,0,0,.032.151A.372.372,0,0,0,0,3.828v.61a.371.371,0,0,0,.368.372H.619a.371.371,0,0,0,.368-.372V3.9h3.42v.539a.371.371,0,0,0,.368.372h.251a.371.371,0,0,0,.368-.372v-.61A.372.372,0,0,0,5.334,3.624ZM.973.528A.277.277,0,0,1,1.236.241H4.078a.277.277,0,0,1,.264.287l.279,1.5H.664Zm.246,2.58H.756a.264.264,0,0,1,0-.527h.463a.264.264,0,0,1,0,.527ZM3.4,2.972H2.11a.1.1,0,0,1,0-.2H3.4a.1.1,0,0,1,0,.2Zm1.241.082H4.176a.264.264,0,0,1,0-.527h.463a.264.264,0,0,1,0,.527Z"/>
</svg>
