<svg id="Layer_1" data-name="Layer 1" xmlns="http://www.w3.org/2000/svg" viewBox="0 0 5.278 6.026">
  <title>22d7f495-9fcb-4912-90c3-2912a8a05082</title>
  <path id="_Compound_Path_" data-name="&lt;Compound Path&gt;" d="M.308,5.078H3.5l.668.947H5.278L4.232,5.078h.137A.3.3,0,0,0,4.678,4.8V.527A.3.3,0,0,0,4.369.249H2.9V0H1.714V.249H.308A.3.3,0,0,0,0,.527V4.8A.3.3,0,0,0,.308,5.078ZM3.221,4.072a.392.392,0,0,1,.411-.37.392.392,0,0,1,.411.37.392.392,0,0,1-.411.37A.392.392,0,0,1,3.221,4.072Zm-2.656,0A.392.392,0,0,1,.977,3.7a.392.392,0,0,1,.411.37.392.392,0,0,1-.411.37A.392.392,0,0,1,.565,4.072Zm0-3.13A.23.23,0,0,1,.805.726H3.873a.23.23,0,0,1,.24.216V2.835a.23.23,0,0,1-.24.216H.805a.23.23,0,0,1-.24-.216Z"/>
</svg>
