<svg id="Layer_1" data-name="Layer 1" xmlns="http://www.w3.org/2000/svg" viewBox="0 0 51.679 61.324">
  <defs>
    <style>
      .cls-1, .cls-3 {
        fill: #fff;
      }

      .cls-1 {
        fill-rule: evenodd;
      }

      .cls-2 {
        fill: #fe4a11;
        stroke: #fe330a;
        stroke-miterlimit: 10;
        stroke-width: 0.5px;
      }
    </style>
  </defs>
  <title>72ca85ae-97cb-4116-859f-78ef6623fbbf</title>
  <g>
    <path class="cls-1" d="M4.947,4.693A2.269,2.269,0,0,0,8.26,2.961,2.043,2.043,0,0,0,4.194,2.81,2.256,2.256,0,0,0,4.947,4.693Zm-.758,26.28c.056-.032.152-.438-.151-.451C4.084,30.676,3.917,31.044,4.189,30.973ZM1.4,36.168c.088-.011.214.013.225-.075.028-.652.073-1.321-.451-1.732.3-.07.19.262.527.151,0-.455-.3-.651-.678-.527-.061-.341-.454-.349-.3-.9H.5a17.863,17.863,0,0,0,1.054,5.872C2.47,38.61,1.432,36.995,1.4,36.168ZM43.2,37.6a.281.281,0,0,0,0,.377h.3C43.554,37.692,43.412,37.607,43.2,37.6ZM2.382,40.158c.068-.415-.289-.8-.452-1.2-.014.111-.182.069-.3.075.339.715.315,1.793.828,2.334.287,1.62,1.558,2.91,2.259,4.367.6.406.881,1.127,1.506,1.506-.081-.621-.654-.752-.678-1.43C4.047,44.365,3.527,41.949,2.382,40.158Zm29.745,10.69c.021.161.383.362.452.226C32.394,51.033,32.418,50.783,32.127,50.848Zm10.467-10.69c-1.386,1-2.185,2.584-3.765,3.388-.029.247-.22.332-.3.527-1.662.62-2.576,1.864-4.744,1.807a2.159,2.159,0,0,1-.829.678c-.783-.195-1.457.376-1.882.527a14.444,14.444,0,0,1-2.485.226,23.368,23.368,0,0,1-8.058-.829A17.482,17.482,0,0,1,18.8,45.73c-.995-.363-1.778-.127-2.108-.979-.27.027-.276.2-.527.075a15.655,15.655,0,0,0-2.937-1.656c-.834-1.6-2.633-2.236-3.464-3.84C8,38.331,7.375,36.2,6,34.812c-.4.409.441,1.372-.15,1.882A6.666,6.666,0,0,1,6.3,39.857c.588.263.9,1.24.15,1.505-.036.592.641,1.359.528,2.034.441.122.623-.024.753-.377.3.386.311,1.106.527,1.581.408.082.326-.327.678-.3a1.178,1.178,0,0,0,.678.452c-.157.558.369.434.527.678a.537.537,0,0,0-.226.15c.508-.262.44.405.6.6.335.408,1.209.677,1.054,1.43.579-.153.414-.528.753-.678.3.534.565.357,1.13.828.118-.286.505-.7.452-.9-.007.329-.367-.078-.376-.226.338-.73.05-1.48.15-2.108.624.329.715,1.192,1.2,1.656-.055.515-.506.813-.527,1.43a1.552,1.552,0,0,0,1.431.527c.69.389.787,1.371,1.13,2.108a2.008,2.008,0,0,1,.753.151.64.64,0,0,0,.075.451c.828.1,1.053-.554,1.808-.3,1.178-1.161,2.912-.445,4.518-.678.086-.587.5-.435.979-.678.145.24-.044.379.075.678.1.148.454.048.452.3.512-.195,1.115-.625.6-.828a8.55,8.55,0,0,1,1.581-.452c.111.33.361.23.226.678a13.4,13.4,0,0,0,2.636-.3c.118.133.021.481.226.527.5.217.619-.445,1.28-.3.122.144.13.631-.075.678.448.312.739-.075,1.355,0a2.831,2.831,0,0,1,.527-.3c1.654-.064,2.474-1.07,3.539-1.656a6.554,6.554,0,0,0,1.13-.678c2.312-1.993,4.131-4.708,6.251-6.851a7.739,7.739,0,0,1,1.581-1.958c.222.049.3.486.527.3.592-.366.067-1.927.979-1.807.744.1.445,1.37.527,2.183.046.46.3.845.3,1.28,0,.608-.306,1.064.076,1.355.71-.382.912-1.373,1.054-2.108a60.321,60.321,0,0,0,.452-6.4c.015-.191.149-.418.15-.6,0-.417-.223-.789-.226-1.2-.009-1.394,1.439-2.6.678-4.066,1.333-1.75.506-4.457.075-6.776-.314-1.69-1.081-3.271-1.356-4.668-.124-.2-.411-.242-.527-.452A16.779,16.779,0,0,0,44.25,7.784,3.18,3.18,0,0,0,43.2,8.01c-.067-.134-.21-.191-.151-.452-.346.034-.682.159-.678-.3a10.651,10.651,0,0,1,1.2.151c-.173-.239-.242-.192-.151-.6A22.067,22.067,0,0,0,29.792.331,20.638,20.638,0,0,0,22.864.256c-.939.119-1.757.756-2.786.6-1.97.815-4.151,1.421-5.723,2.635-.206.007-.151-.125-.3,0-.955.777-2.207,1.258-3.012,2.184C9.3,6.743,8.059,8.316,6.523,9.591c-.045.24.141.233,0,.377-.925.4-.943,1.253-1.431,2.033.2.03.218.234.3.376-.9.968-.785,3.233-2.335,3.312.8.9-.052,2.1-.678,2.786.279.333-.107.643-.226.828.092.588-.268.975-.076,1.431-.432,1.032-1.455,1.483-1.2,2.635-.23.054-.275-.076-.452-.075a.412.412,0,0,1-.3.3,36.559,36.559,0,0,0-.075,5.044c.013.836.255,1.587.3,2.334.043.695-.279,1.546.377,1.958.214.013-.091-.493.226-.377a.481.481,0,0,1,.3.452c.031.332-.361.242-.226.678.618.09.7-.621,1.28-.9a.529.529,0,0,1,0-.452c.233-.248.435-.063.6-.376-.325.083-.35-.056-.527-.075.255-.534.47-1.211,1.13-1.129.068-.355-.418-.071-.226-.3.05.208.26-.345,0-.075-.055-.233.446-.556.829-.6-.077-.073-.153-.149-.226-.226.416-1.044-.855-2.875.151-3.463,0-1.664-.434-2.747-.076-4.593-.02-.255-.388-.164-.377-.451.071-.23.366-.236.377-.527A14.707,14.707,0,0,0,4.49,17.2c.159-1.179,1.245-1.992,1.054-3.313A2.19,2.19,0,0,0,6.3,12.151a1.256,1.256,0,0,0,1.431-.527c-.048-.354-.352-.451-.377-.828.7-1.356,2.044-2.073,2.711-3.464.475.073.466-.337.678-.526A21.489,21.489,0,0,1,24.672,2.74c.117.108.262.19.3.377a12.945,12.945,0,0,0,1.43.3c.648.689,1.924.711,2.861,1.129,1.268.565,2.705,1.318,3.992,1.807,1.813.69,3.838,1.346,5.12,2.484,1.463,1.3,1.863,3.241,2.711,5.044.343.729.755,1.347,1.055,2.108a2.257,2.257,0,0,1-.979-.979c-.231.055-.222-.13-.452-.075a3.09,3.09,0,0,0-1.732-1.2c-.474-.773-1.593-.98-2.409-1.355-.637-.292-1.1-1.12-1.808-1.13.009.442.487.428.6.376.036.237-.231.171-.15.451.295.437.716.585,1.054.979.158.184.191.523.377.753.677.833,1.832,1.3,2.485,2.108a9.507,9.507,0,0,0,.979,1.355c.329.288.742.356,1.055.6.623.491,1.011,1.457,1.657,1.882A6.432,6.432,0,0,0,45,22.014a1.428,1.428,0,0,1,.075,1.28c-.777-.428-1-1.413-1.657-1.957-.739-1.47-2.175-2.242-3.238-3.388-.177,0-.221-.13-.451-.075a8.834,8.834,0,0,0-5.271-2.635A11.313,11.313,0,0,0,37.473,17.5c.044.683.7.754,1.2.979.017.142-.085.166-.075.3,1.945,1.694,3.266,4.013,5.046,5.872.309.961,1.734,2.576,1.732,3.689,0,.483-.464,1.043-.6,1.657a10.651,10.651,0,0,0-.151,1.2c-.054.5-.191.934-.226,1.355-.078.928.421,1.826.377,2.711m-37.2,6.7c-.267-.04-.185.267-.452.226-.2-.172-.146-.38-.226-.527.129-.1.425.047.678-.075A.469.469,0,0,0,7.577,41.965Zm6.175,2.485c-.158-.044-.215-.187-.452-.151-.017-.134.075-.377-.151-.3.248-.248-.2-.18-.151-.452.27-.044.365.087.528.151C13.356,44,13.811,43.905,13.753,44.449Zm7.154,4.517c-.426-1.217,1.131-.237,0,0Zm1.431,0c.006-.107.012-.213-.076-.226.02-.176.331-.043.377,0C22.573,48.851,22.525,48.98,22.337,48.967Zm-7.3,4.668a2.833,2.833,0,0,1-.527-.151c-1.574-1.254-3.384-1.821-4.669-3.313-1.375-.361-1.717-2.141-3.162-2.183a11.792,11.792,0,0,0,1.807,2.183c.194.145.467.144.678.3.387.29.663.772,1.054,1.054.215.156.522.308.753.452a15.794,15.794,0,0,0,4.443,2.259c.08,0,.192-.035.075-.075A3.967,3.967,0,0,1,15.033,53.634Zm1.355.678c-.3.121-.515-.148-.6.151.729-.007,1.389.655,2.334.678C17.909,54.5,16.825,54.729,16.388,54.312Z"/>
    <path class="cls-2" d="M19.306,12.43a15,15,0,0,0,.2-2.047,1.39,1.39,0,0,0-.565-1.222l.059-.1q1.184.177,1.185.928a1.06,1.06,0,0,1-.027.218q-.086.444-.167.969l-.064.355-.124.785a.114.114,0,0,0,.014.088.09.09,0,0,0,.062.048.026.026,0,0,0,.027,0l.695-.082a11.045,11.045,0,0,0,1.416-.222,1.468,1.468,0,0,0,.695-.317c.086-.1.158-.143.215-.143q.172,0,.415.471a1.4,1.4,0,0,1,.183.587.228.228,0,0,1-.07.171,1.371,1.371,0,0,0-.3.826A17.075,17.075,0,0,1,21.8,19.324q-.387.717-.743.717a.165.165,0,0,1-.146-.062.434.434,0,0,1-.043-.232v-.089a3.642,3.642,0,0,0-.931-2.054l.032-.109q.979.9,1.141,1.024l.059.055h.005a.339.339,0,0,0,.194.088q.135-.007.242-.222a5.941,5.941,0,0,0,.27-.693,22.157,22.157,0,0,0,.9-5.283.128.128,0,0,0-.027-.1.078.078,0,0,0-.076-.031l-1.3.191q-1.491.239-1.577.246a.1.1,0,0,0-.091.1,16.552,16.552,0,0,1-1.325,4.191,9.312,9.312,0,0,1-2.907,3.379l-.07-.1a12.487,12.487,0,0,0,3.79-7.29.125.125,0,0,0-.011-.088.109.109,0,0,0-.059-.055.029.029,0,0,0-.027,0q-.151.014-.307.041-.6.109-1.313.28a2.269,2.269,0,0,1-.447.068q-.689,0-1.1-1.072L16,12.137a1.79,1.79,0,0,0,1.4.519,15.1,15.1,0,0,0,1.83-.13C19.272,12.521,19.3,12.49,19.306,12.43Z"/>
    <path class="cls-2" d="M14.354,29.5a14.273,14.273,0,0,0,3.095-5.378,6.99,6.99,0,0,0,.364-1.643.773.773,0,0,0-.537-.684l.054-.125q1.347.118,1.341.739a4.077,4.077,0,0,1-.221.863,14.074,14.074,0,0,1-4.013,6.31Zm6.535-7.677a13.738,13.738,0,0,1,2.79,3.231,5.458,5.458,0,0,1,.978,2.672,1.093,1.093,0,0,1-.1.549.346.346,0,0,1-.316.162q-.256.007-.4-.635a12.4,12.4,0,0,0-3.047-5.875Z"/>
    <path class="cls-2" d="M22.7,37.7q.489.193.489.449c0,.162-.167.242-.5.242h-.2l-1.061-.014H19.5q-.751,0-2.558.117a.088.088,0,0,0-.077.049.121.121,0,0,0-.018.1c.008.042.022.108.042.2a.033.033,0,0,0,.006.021V38.9a.677.677,0,0,1-.215.477.41.41,0,0,1-.25.124.216.216,0,0,1-.2-.1.763.763,0,0,1-.062-.366v-.158q.036-.746.036-2.7a38.965,38.965,0,0,0-.143-4.494,1.738,1.738,0,0,0-.572-.994l.065-.076a1.718,1.718,0,0,1,1.229.787.1.1,0,0,0,.1.063q1.157-.07,2.308-.131,2.1-.083,2.791-.187a1.591,1.591,0,0,0,.668-.269.416.416,0,0,1,.238-.1c.063,0,.155.069.274.207a1.646,1.646,0,0,1,.411.946c0,.06-.042.12-.125.18a.832.832,0,0,0-.286.518v.007q-.06.393-.4,3.8l-.078.663-.048.483A.113.113,0,0,0,22.7,37.7Zm-.507.117.4-6.227a.112.112,0,0,0-.03-.093.086.086,0,0,0-.078-.031l-5.7.345q-.078,0-.1.1a5.849,5.849,0,0,0-.024.7q-.006,2.409.119,5.24l.012.207a.116.116,0,0,0,.033.083.094.094,0,0,0,.068.035h.137q.036,0,1.777-.09.733-.028,2.17-.1.757-.042.936-.042h.173a.089.089,0,0,0,.072-.038A.129.129,0,0,0,22.192,37.818Z"/>
    <g>
      <path class="cls-3" d="M26.473,11.895a.127.127,0,0,1-.027-.056.354.354,0,0,1,.115-.216.843.843,0,0,1,.3-.2l.167-.073h.027c.045,0,.084.032.118.1a.537.537,0,0,1,.049.247,1.306,1.306,0,0,1-.018.151.447.447,0,0,0-.1.308v.229q0,2.427-.05,3.867T27,17.724c0,.086.007.231.022.435s.023.369.023.5a.976.976,0,0,1-.066.387c-.043.1-.1.151-.156.151a.249.249,0,0,1-.077-.022.244.244,0,0,0-.09-.022.216.216,0,0,0-.068.017.28.28,0,0,1-.1.017q-.212,0-.212-.3c0-.022.006-.08.018-.173a2.016,2.016,0,0,0,.2-.849q.073-.681.072-3.108Q26.573,12.988,26.473,11.895Zm4.8,6.244a.264.264,0,0,1,.158.263.958.958,0,0,1-.138.535.405.405,0,0,1-.346.21q-.208,0-.375-.305a4.138,4.138,0,0,0-.829-.891q-.661-.586-1.2-1.11a3.939,3.939,0,0,0-.982-.737q-.338-.241-.339-.432a.486.486,0,0,1,.072-.229,2.028,2.028,0,0,0,.371-.448,1.017,1.017,0,0,1,.212-.073c.051-.052.12-.119.205-.2a1,1,0,0,0,.143-.151q.09-.19.477-.821t.64-1.068l.628-1.121a1.086,1.086,0,0,1,.306-.056.625.625,0,0,1,.144.011.582.582,0,0,1,.036.207v.045a.553.553,0,0,1-.063.241,4.663,4.663,0,0,0-.655.723,1.546,1.546,0,0,1-.3.554l-.379.578-.3.526-.2.224c-.054.06-.1.108-.126.146a.655.655,0,0,0-.054.073,2.349,2.349,0,0,1-.124.274.567.567,0,0,0-.079.219.626.626,0,0,0,.136.4,3.751,3.751,0,0,0,.427.429q.292.258.5.449c.137.127.232.213.287.258a2.229,2.229,0,0,1,.228.236c.1.112.171.192.219.241a.8.8,0,0,1,.226.163.726.726,0,0,0,.133.124.367.367,0,0,1,.111.123c.027.015.063.032.108.051a.353.353,0,0,1,.086.044v.011c0,.064.084.131.253.2a1.385,1.385,0,0,0,.3.106A.248.248,0,0,0,31.274,18.139Z"/>
      <path class="cls-3" d="M34.82,16.081a.231.231,0,0,1-.062.124.546.546,0,0,0-.083.14,1.515,1.515,0,0,0-.036.328c-.01.178-.014.44-.014.788l.018.757a.157.157,0,0,1-.04.106,1.452,1.452,0,0,0-.01.207,3.278,3.278,0,0,0,.055.527l.05.3-.01.274.01.241q-.325.4-.483.4a.22.22,0,0,1-.086-.039.223.223,0,0,0-.117-.04h-.027a1.242,1.242,0,0,1-.036-.28,1.369,1.369,0,0,1,.1-.527c.033-.052.059-.093.075-.123a1.164,1.164,0,0,0,.024-.336c0-.213-.018-.319-.054-.319a.216.216,0,0,0-.057.022.234.234,0,0,1-.1.022H33.9a.2.2,0,0,0-.068.118,3.167,3.167,0,0,0-.591.252,1.282,1.282,0,0,1-.506.112,1.247,1.247,0,0,1-.479-.087.91.91,0,0,1-.357-.258,1.592,1.592,0,0,1-.187-.255.963.963,0,0,1-.043-.364l.009-.14v-.045a1.673,1.673,0,0,1,.7-1.177,3.025,3.025,0,0,1,1.312-.746,1.539,1.539,0,0,0,.253-.07.343.343,0,0,0,.151-.12.768.768,0,0,0,.061-.387,1.34,1.34,0,0,0-.849-1.356.417.417,0,0,1-.075-.045.148.148,0,0,0-.083-.034,4.98,4.98,0,0,0-.731.045.452.452,0,0,1-.361.23q-.149,0-.149-.129s.022-.083.066-.238a.3.3,0,0,1,.313-.232,2,2,0,0,1,1.04-.191,1.035,1.035,0,0,1,.938.583,3.387,3.387,0,0,1,.335,1.665v.079a.215.215,0,0,0,.126.106c.061.022.091.056.091.1Zm-.89,1.99a1.708,1.708,0,0,0,.284-.852,1.546,1.546,0,0,0-.093-.5.36.36,0,0,0-.368-.269,1.18,1.18,0,0,0-.867.331h-.113a1.3,1.3,0,0,0-.7,1.009.809.809,0,0,0,.287.63.97.97,0,0,0,.666.255,1.351,1.351,0,0,0,.379-.106,1.268,1.268,0,0,0,.521-.4Z"/>
    </g>
    <g>
      <path class="cls-3" d="M30.782,22.571a.447.447,0,0,1-.009-.112q0-.179.262-.336a1.574,1.574,0,0,1,.293-.157h.036a.155.155,0,0,1,.131.093.442.442,0,0,1,.054.227.6.6,0,0,1-.027.173c-.069.03-.1.14-.1.331l.022,1.042q0,2.236-.056,3.584T31.328,28.8a.619.619,0,0,0,.149.426c-.015.108-.027.2-.036.277s-.022.119-.041.126a.949.949,0,0,0-.314.14.619.619,0,0,1-.228.112c-.024,0-.064-.032-.122-.1l-.054-.4a3.272,3.272,0,0,0,.194-1.233v-.191l.009-1.782a.349.349,0,0,0-.059-.146.234.234,0,0,0-.133-.121.706.706,0,0,0-.179-.02l-.23.034H29.8q-.777,0-.969.017a.866.866,0,0,0-.28.059.5.5,0,0,1-.1.042.117.117,0,0,1-.108-.084.787.787,0,0,1-.325.084l-.361-.022q-.7,0-.7.3v.135l-.009.448.009.493-.018.863a4.5,4.5,0,0,0,.065.723,4.12,4.12,0,0,1,.066.527l-.009.219-.158.129a.763.763,0,0,0-.5-.084c-.033-.045-.061-.067-.082-.067a.025.025,0,0,0-.018.011.866.866,0,0,1-.018-.174c0-.011,0-.06.009-.146q.108-1.088.131-2.5l.045-2.792.027-.953a5.5,5.5,0,0,0-.14-1.183l-.063-.084q.054,0,.054-.067v-.078c0-.063.018-.1.054-.106q.149-.219.307-.219a1,1,0,0,1,.434.163q-.2,2.965-.2,3.25c0,.022,0,.08.009.171s.009.141.009.148l-.009.056a.433.433,0,0,0,.388.393h.059a1.147,1.147,0,0,1,.205.028,1.149,1.149,0,0,0,.2.028c.024,0,.14-.017.348-.05a3.193,3.193,0,0,1,.456-.05q.4,0,.7.022l.312.022c.039,0,.067-.028.085-.084a1.1,1.1,0,0,0,.348.062h.438a.121.121,0,0,1,.09-.062.307.307,0,0,0,.237-.16.481.481,0,0,0,.07-.2v-.319l.009-1.1v-.263Q30.895,22.6,30.782,22.571Z"/>
      <path class="cls-3" d="M35.863,26.69a.228.228,0,0,1-.061.124.553.553,0,0,0-.084.14,1.476,1.476,0,0,0-.035.328c-.01.178-.014.44-.014.788l.018.757a.153.153,0,0,1-.041.106,1.618,1.618,0,0,0-.01.207,3.4,3.4,0,0,0,.055.527l.051.3-.01.274.01.241c-.217.269-.379.4-.484.4a.226.226,0,0,1-.086-.039.218.218,0,0,0-.117-.04h-.027a1.294,1.294,0,0,1-.035-.28A1.352,1.352,0,0,1,35.1,30c.033-.052.059-.093.074-.123a1.11,1.11,0,0,0,.025-.336c0-.213-.018-.319-.055-.319a.23.23,0,0,0-.057.022.228.228,0,0,1-.1.022h-.035a.192.192,0,0,0-.068.118,3.129,3.129,0,0,0-.592.252,1.274,1.274,0,0,1-.506.112,1.246,1.246,0,0,1-.479-.087.915.915,0,0,1-.357-.258,1.612,1.612,0,0,1-.187-.255.963.963,0,0,1-.043-.364l.009-.14V28.6a1.674,1.674,0,0,1,.7-1.177,3.021,3.021,0,0,1,1.312-.746,1.527,1.527,0,0,0,.254-.07.341.341,0,0,0,.15-.12A.768.768,0,0,0,35.2,26.1a1.34,1.34,0,0,0-.848-1.356.357.357,0,0,1-.074-.045.159.159,0,0,0-.084-.034,4.985,4.985,0,0,0-.732.045.45.45,0,0,1-.361.23c-.1,0-.148-.043-.148-.129,0,0,.021-.083.065-.238a.3.3,0,0,1,.313-.232,2,2,0,0,1,1.039-.191,1.035,1.035,0,0,1,.939.583,3.389,3.389,0,0,1,.334,1.665v.079a.217.217,0,0,0,.127.106c.061.022.09.056.09.1Zm-.889,1.99a1.706,1.706,0,0,0,.283-.852,1.57,1.57,0,0,0-.092-.5.362.362,0,0,0-.369-.269,1.18,1.18,0,0,0-.867.331h-.111a1.294,1.294,0,0,0-.7,1.009.808.808,0,0,0,.286.63.972.972,0,0,0,.666.255,1.375,1.375,0,0,0,.381-.106,1.278,1.278,0,0,0,.52-.4Z"/>
    </g>
    <g>
      <path class="cls-3" d="M30.949,38.306a.311.311,0,0,1,.046.178.642.642,0,0,1-.147.393c-.1.128-.185.191-.26.191-.054,0-.134-.07-.239-.213l-.257-.313a5.584,5.584,0,0,0-.982-.858q-.7-.511-1.857-1.51l-.056-.3v-.045a.1.1,0,0,1,.072-.108q.072-.025.212-.086a2.7,2.7,0,0,0,1.2-.821,2.133,2.133,0,0,0,.343-1.275,1.787,1.787,0,0,0-.45-1.37,1.49,1.49,0,0,0-1.035-.412h-.194a.379.379,0,0,0-.256.1q-.116.1-.115.51c0,.131,0,.238.011.322s.011.2.011.356l-.046,1.4q0,.331,0,.521l.012.409-.017.252q-.017.3-.017.633,0,.308.072,2.8a1.189,1.189,0,0,0-.069.123c-.028.057-.052.084-.07.084s-.036-.013-.062-.039c-.192.071-.293.106-.305.106-.048,0-.1-.039-.142-.117a.712.712,0,0,1-.069-.354V38.8A4.253,4.253,0,0,0,26.5,37.14l-.027-2.057L26.5,33.6l-.009-.885a4.923,4.923,0,0,0-.036-.519c-.024-.215-.036-.367-.036-.457a.4.4,0,0,1,.034-.185.16.16,0,0,1,.113-.079c.052-.011.151-.027.3-.048a3.285,3.285,0,0,1,.461-.031,3.1,3.1,0,0,1,.831.1,2.351,2.351,0,0,1,.72.345,1.429,1.429,0,0,1,.481.513,2.626,2.626,0,0,1,.2.546,2.207,2.207,0,0,1,.068.532,2.4,2.4,0,0,1-1.544,2.231.272.272,0,0,0-.108.179.482.482,0,0,0,.183.312q.183.177.684.575a1.845,1.845,0,0,1,.312.253c.12.116.2.192.244.23a1.273,1.273,0,0,1,.338.233.689.689,0,0,0,.242.171.465.465,0,0,1,.115.045.17.17,0,0,0,.063.112,3.332,3.332,0,0,1,.406.32q.24.213.335.213A.129.129,0,0,0,30.949,38.306Z"/>
      <path class="cls-3" d="M31.586,35.668A2.539,2.539,0,0,1,34.119,34a2.93,2.93,0,0,1,.508.04,1.59,1.59,0,0,1,.414.129,1.347,1.347,0,0,1,.352.241,2.148,2.148,0,0,1,.314.376,4.083,4.083,0,0,1,.3.539,2.022,2.022,0,0,1,.082.729,3.454,3.454,0,0,1-.7,2.188,2.127,2.127,0,0,1-1.736.9h-.037a1.979,1.979,0,0,0-.234-.056.035.035,0,0,0-.027.011c-.027.053-.119.078-.275.078a1.686,1.686,0,0,1-.756-.228,1.777,1.777,0,0,1-.713-.7,1.931,1.931,0,0,1-.278-.994q0-.2.016-.4a3.782,3.782,0,0,1,.05-.382,3.133,3.133,0,0,1,.083-.345l.108-.32Zm3.979.915v-.146a2.276,2.276,0,0,0-.471-1.5,1.544,1.544,0,0,0-1.25-.57,1.052,1.052,0,0,0-.32.048,1.357,1.357,0,0,0-.172.062.4.4,0,0,0-.078.118.5.5,0,0,1-.082.123.107.107,0,0,1-.07.02l-.23-.034c-.033,0-.055.034-.066.1q-.344.034-.646.634a2.748,2.748,0,0,0-.3,1.251q0,.141.045.592a1.386,1.386,0,0,0,.28.746,2.251,2.251,0,0,0,.571.5,1.125,1.125,0,0,0,.545.211.344.344,0,0,0,.107-.018l.041-.016h.186a1.126,1.126,0,0,0,.822-.23c.014-.016.023-.023.027-.023a.206.206,0,0,1,.084.034,3.75,3.75,0,0,0,.74-1.119A2.7,2.7,0,0,0,35.564,36.582Z"/>
    </g>
  </g>
</svg>
